#N canvas 456 57 675 451 12;
#X obj -45 176 *~;
#X obj 9 174 pack f 10;
#X obj 112 118 vsl 19 162 0 1 0 0 empty empty empty 0 -9 0 12 #fcfcfc #000000 #000000 0 1;
#X floatatom 142 127 5 0 0 0 - - - 0;
#X obj -126 129 delread~ delayline1;
#X obj 9 198 line~;
#X obj -123 299 send~ delayline;
#X obj -50 227 send~ fb;
#X connect 0 0 7 0;
#X connect 1 0 5 0;
#X connect 2 0 1 0;
#X connect 3 0 4 0;
#X connect 4 0 0 0;
#X connect 4 0 6 0;
#X connect 5 0 0 1;
#X coords 0 -1 1 1 85 200 2 100 100;
