#N canvas 743 129 681 535 12;
#X obj 194 196 *~ 40;
#X floatatom 103 327 5 0 0 0 - - - 0;
#X obj 194 224 expr~ tanh($v1);
#X obj 183 124 r~ masterin;
#X obj 194 452 s~ dist;
#X obj 102 155 vsl 19 162 0 100 0 0 empty empty empty 0 -9 0 12 #fcfcfc #000000 #000000 0 1;
#X obj 193 266 lop~;
#X obj 193 299 lop~;
#X obj 195 333 lop~;
#X obj 195 366 lop~;
#X obj 141 155 vsl 19 162 100 10000 0 0 empty empty empty 0 -9 0 12 #fcfcfc #000000 #000000 0 1;
#X floatatom 141 325 5 0 0 0 - - - 0;
#X text 102 111 Amount;
#X text 132 132 FFreq;
#X obj 286 138 catch~ distin;
#X connect 0 0 2 0;
#X connect 1 0 0 1;
#X connect 2 0 6 0;
#X connect 5 0 1 0;
#X connect 6 0 7 0;
#X connect 7 0 8 0;
#X connect 8 0 9 0;
#X connect 9 0 4 0;
#X connect 10 0 6 1;
#X connect 10 0 9 1;
#X connect 10 0 8 1;
#X connect 10 0 7 1;
#X connect 10 0 11 0;
#X connect 14 0 0 0;
#X coords 0 -1 1 1 80 250 2 100 100;
