#N canvas 13 202 1323 620 12;
#X obj 409 24 master;
#X obj 65 29 master_in;
#X obj 185 26 ringmod;
#X obj 22 320 r~ ringmod;
#X obj 86 432 output~;
#X obj 116 314 r~ granl;
#X obj 186 317 r~ granr;
#X obj 258 30 dist;
#X obj 262 313 r~ dist;
#X obj 716 111 delwrite~ delayline1 10000;
#X obj 711 148 delayline;
#X obj 827 83 r~ fb;
#X obj 39 355 r~ delayline;
#X obj 884 302 freeze_reverb;
#X obj 715 50 catch~ delin;
#N canvas 464 103 1048 455 mic_distribution 0;
#X obj 37 28 r~ masterin;
#X obj 37 207 throw~ ringmodin;
#X obj 73 128 line~;
#X obj 124 127 pack f 10;
#X obj 38 127 *~;
#X obj 219 25 vsl 19 162 0 1 0 0 empty empty empty 0 -9 0 12 #fcfcfc #000000 #000000 0 1;
#X obj 299 28 r~ masterin;
#X obj 335 128 line~;
#X obj 386 127 pack f 10;
#X obj 300 127 *~;
#X obj 481 25 vsl 19 162 0 1 0 0 empty empty empty 0 -9 0 12 #fcfcfc #000000 #000000 0 1;
#X obj 299 207 throw~ distin;
#X obj 537 44 r~ masterin;
#X obj 573 144 line~;
#X obj 624 143 pack f 10;
#X obj 538 143 *~;
#X obj 719 41 vsl 19 162 0 1 0 0 empty empty empty 0 -9 0 12 #fcfcfc #000000 #000000 0 1;
#X obj 537 223 throw~ grainin;
#X obj 788 41 r~ masterin;
#X obj 824 141 line~;
#X obj 875 140 pack f 10;
#X obj 789 140 *~;
#X obj 970 38 vsl 19 162 0 1 0 0 empty empty empty 0 -9 0 12 #fcfcfc #000000 #000000 0 1;
#X obj 788 220 throw~ revin;
#X connect 0 0 4 0;
#X connect 2 0 4 1;
#X connect 3 0 2 0;
#X connect 4 0 1 0;
#X connect 5 0 3 0;
#X connect 6 0 9 0;
#X connect 7 0 9 1;
#X connect 8 0 7 0;
#X connect 9 0 11 0;
#X connect 10 0 8 0;
#X connect 12 0 15 0;
#X connect 13 0 15 1;
#X connect 14 0 13 0;
#X connect 15 0 17 0;
#X connect 16 0 14 0;
#X connect 18 0 21 0;
#X connect 19 0 21 1;
#X connect 20 0 19 0;
#X connect 21 0 23 0;
#X connect 22 0 20 0;
#X restore 65 254 pd mic_distribution;
#X obj 156 368 r~ revout;
#N canvas 49 38 1504 511 distribution 0;
#X obj 112 102 r~ revout;
#X obj 112 143 *~;
#X obj 111 195 throw~ grainin;
#X obj 196 134 line~;
#X obj 247 133 pack f 10;
#X obj 342 31 vsl 19 162 0 1 0 0 empty empty empty 0 -9 0 12 #fcfcfc #000000 #000000 0 1;
#X obj 442 139 r~ revout;
#X obj 442 180 *~;
#X obj 526 171 line~;
#X obj 577 170 pack f 10;
#X obj 672 68 vsl 19 162 0 1 0 0 empty empty empty 0 -9 0 12 #fcfcfc #000000 #000000 0 1;
#X obj 441 232 throw~ distin;
#X obj 770 136 r~ ringmod;
#X obj 774 188 line~;
#X obj 825 187 pack f 10;
#X obj 920 85 vsl 19 162 0 1 0 0 empty empty empty 0 -9 0 12 #fcfcfc #000000 #000000 0 1;
#X obj 764 223 *~;
#X obj 763 275 throw~ revin;
#X obj 1076 185 line~;
#X obj 1127 184 pack f 10;
#X obj 1222 82 vsl 19 162 0 1 0 0 empty empty empty 0 -9 0 12 #fcfcfc #000000 #000000 0 1;
#X obj 1066 220 *~;
#X obj 1072 133 r~ revout;
#X obj 1065 272 throw~ ringmodin;
#X connect 0 0 1 0;
#X connect 1 0 2 0;
#X connect 3 0 1 1;
#X connect 4 0 3 0;
#X connect 5 0 4 0;
#X connect 6 0 7 0;
#X connect 7 0 11 0;
#X connect 8 0 7 1;
#X connect 9 0 8 0;
#X connect 10 0 9 0;
#X connect 12 0 16 0;
#X connect 13 0 16 1;
#X connect 14 0 13 0;
#X connect 15 0 14 0;
#X connect 16 0 17 0;
#X connect 18 0 21 1;
#X connect 19 0 18 0;
#X connect 20 0 19 0;
#X connect 21 0 23 0;
#X connect 22 0 21 0;
#X restore 1016 212 pd distribution;
#X connect 3 0 4 0;
#X connect 3 0 4 1;
#X connect 11 0 9 0;
#X connect 14 0 9 0;
#X connect 16 0 4 0;
#X connect 16 0 4 1;
