#N canvas 0 38 1173 730 12;
#X obj 396 121 *~;
#X obj 412 151 env~;
#X obj 147 123 vu 19 160 empty empty -1 -10 0 12 #404040 #000000 1 0;
#X obj 412 193 - 100;
#X obj 119 120 vsl 19 162 0 127 0 0 empty empty empty 0 -9 0 12 #fcfcfc #000000 #000000 0 1;
#X obj 681 278 / 127;
#X obj 681 302 pack f 10;
#X obj 681 326 line~;
#X obj 350 233 s~ masterin;
#X obj 770 300 array define buffer;
#X obj 516 128 tabwrite~ buffer;
#X obj 958 306 array size buffer;
#X floatatom 965 181 5 0 0 0 - - - 0;
#X obj 965 251 * 480000;
#X obj 521 85 bng 19 250 50 0 empty empty empty 0 -10 0 12 #fcfcfc #000000 #000000;
#X obj 397 64 adc~ 2;
#X connect 0 0 1 0;
#X connect 0 0 8 0;
#X connect 0 0 10 0;
#X connect 1 0 3 0;
#X connect 3 0 2 0;
#X connect 4 0 5 0;
#X connect 5 0 6 0;
#X connect 6 0 7 0;
#X connect 7 0 0 1;
#X connect 12 0 13 0;
#X connect 13 0 11 0;
#X connect 14 0 10 0;
#X connect 15 0 0 0;
#X coords 0 -1 1 1 100 200 1 100 100;
