#N canvas 171 154 908 575 12;
#X obj 119 126 tgl 19 0 empty empty ON\ /\ OFF 0 -10 0 12 #fcfcfc #000000 #000000 0 1;
#X floatatom 176 275 8 0 0 0 - - - 0;
#X floatatom 176 228 5 0 0 0 - - - 0;
#X obj -46 510 vu 19 120 vu1 empty -1 -10 0 12 #404040 #000000 1 0;
#X floatatom 177 371 5 0 0 0 - - - 0;
#X floatatom 176 322 5 0 0 0 - - - 0;
#X floatatom 177 465 5 0 0 0 - - - 0;
#X obj 179 489 hsl 162 19 0 1 0 0 pan set_pan PAN 5 10 0 12 #fcfcfc #000000 #000000 0 1;
#X obj 179 204 hsl 162 19 0 1 0 0 posran set_pos_rand POSITION-RANDOM 5 10 0 12 #fcfcfc #000000 #000000 0 1;
#X floatatom 176 134 5 0 0 0 - - - 0;
#X obj 179 110 hsl 162 19 1 500 0 0 rate set_rate GRAINRATE 5 10 0 12 #fcfcfc #000000 #000000 0 1;
#X floatatom 176 181 5 0 0 0 - - - 0;
#X obj 179 157 hsl 162 19 0 1000 0 0 randrate set_rate_rand GRAINRATE-RANDOM 5 10 0 12 #fcfcfc #000000 #000000 0 1;
#X obj 179 251 hsl 162 19 0.01 1000 1 0 grainlen set_grainlen GRAINLENGTH 5 10 0 12 #fcfcfc #000000 #000000 0 1;
#X obj 179 298 hsl 162 19 0 500 0 0 grainlen-rand set_grainlen_ran GRAINLENGTH-RANDOM 5 10 0 12 #fcfcfc #000000 #000000 0 1;
#X obj 180 347 hsl 162 19 -48 48 0 0 transpose set_transp TRANSPOSE 5 10 0 12 #fcfcfc #000000 #000000 0 1;
#X obj 180 441 hsl 162 19 0 1 0 0 vol set_vol VOLUME 5 10 0 12 #fcfcfc #000000 #000000 0 1;
#X floatatom 177 418 5 0 0 0 - - - 0;
#X obj 180 394 hsl 162 19 0 12 0 0 transprand set_transprand TRANSPOSE-RANDOM 5 10 0 12 #fcfcfc #000000 #000000 0 1;
#X obj 179 513 hsl 162 19 0 1 0 0 randpan set_randpan PAN-RANDOM 5 10 0 12 #fcfcfc #000000 #000000 0 1;
#X obj 14 510 vu 19 120 vu2 empty -1 -10 0 12 #404040 #000000 1 0;
#N canvas 321 38 634 392 granulator 0;
#X obj 120 100 metro 50;
#X obj 121 155 f;
#X obj 120 185 + 1;
#X msg 120 238 next \$1;
#X obj 229 128 expr random(0 \, $f1);
#X floatatom 232 103 5 0 0 0 - - - 0;
#X obj 181 63 r rate;
#X obj 241 73 r randrate;
#X obj 115 42 inlet;
#X obj 121 127 del 5;
#X obj 119 305 clone grain 1000;
#X obj 120 211 % 1000;
#X msg 225 204 vis 1000 1;
#X connect 0 0 4 0;
#X connect 0 0 9 0;
#X connect 1 0 2 0;
#X connect 2 0 11 0;
#X connect 3 0 10 0;
#X connect 4 0 9 1;
#X connect 5 0 4 0;
#X connect 6 0 0 1;
#X connect 7 0 5 0;
#X connect 8 0 0 0;
#X connect 9 0 1 0;
#X connect 11 0 1 1;
#X connect 11 0 3 0;
#X connect 12 0 10 0;
#X restore -28 148 pd granulator;
#N canvas 292 45 276 254 out 0;
#X obj 30 129 env~;
#X obj 30 157 - 100;
#X obj 48 16 catch~ ch1;
#X obj 150 16 catch~ ch2;
#X obj 48 55 clip~ -1 1;
#X obj 150 55 clip~ -1 1;
#X obj 97 129 env~;
#X obj 97 157 - 100;
#X obj 48 94 outlet~;
#X obj 150 94 outlet~;
#X obj 30 185 s vu1;
#X obj 97 185 s vu2;
#X connect 0 0 1 0;
#X connect 1 0 10 0;
#X connect 2 0 4 0;
#X connect 3 0 5 0;
#X connect 4 0 8 0;
#X connect 4 0 0 0;
#X connect 5 0 9 0;
#X connect 5 0 6 0;
#X connect 6 0 7 0;
#X connect 7 0 11 0;
#X restore -171 528 pd out;
#N canvas 426 500 763 278 input 1;
#X obj 54 197 delwrite~ master-delay 5000;
#X obj 91 149 - 100;
#X obj 91 173 s invu;
#X obj 91 125 env~;
#X obj 51 72 *~;
#X obj 125 48 r invol;
#X obj 125 72 pack f 10;
#X obj 125 96 line~;
#X obj 53 25 catch~ grainin;
#X connect 1 0 2 0;
#X connect 3 0 1 0;
#X connect 4 0 0 0;
#X connect 4 0 3 0;
#X connect 5 0 6 0;
#X connect 6 0 7 0;
#X connect 7 0 4 1;
#X connect 8 0 4 0;
#X restore -184 237 pd input;
#X obj 132 191 vu 19 160 invu empty -1 -10 0 12 #404040 #000000 0 0;
#X obj 111 191 vsl 19 160 0 1 0 0 invol invol_set INPUT\ VOL 0 -9 0 12 #fcfcfc #000000 #000000 0 1;
#X msg 407 441 \; set_transp 0;
#X msg 442 200 \; invol_set 0.5 \; set_rate 10 \; set_rate_rand 10 \; set_pos_rand 0.5 \; set_grainlen 50 \; set_grainlen_ran 10 \; set_transp 0 \; set_transprand 0 \; set_vol 0.5 \; \; set_pan 0.5 \; set_randpan 0;
#X obj 448 139 loadbang;
#X text 345 589 ©alexander bauer 2024;
#X obj -173 565 s~ granl;
#X obj -154 596 s~ granr;
#X connect 0 0 21 0;
#X connect 8 0 2 0;
#X connect 10 0 9 0;
#X connect 12 0 11 0;
#X connect 13 0 1 0;
#X connect 14 0 5 0;
#X connect 15 0 4 0;
#X connect 16 0 6 0;
#X connect 18 0 17 0;
#X connect 22 0 30 0;
#X connect 22 1 31 0;
#X connect 28 0 27 0;
#X coords 0 -1 1 1 250 500 1 100 100;
