#N canvas 194 38 1318 875 12;
#X obj 68 617 output~;
#X obj 104 277 spigot;
#X msg 494 280 0;
#X msg 457 256 1;
#X obj 477 198 bng 19 250 50 0 empty empty empty 0 -10 0 12 #fcfcfc #000000 #000000;
#X obj 540 278 bng 19 250 50 0 empty empty empty 0 -10 0 12 #fcfcfc #000000 #000000;
#X obj 500 628 s dur;
#X floatatom 501 598 5 0 0 0 - - - 0;
#X obj 454 -9 key;
#X obj 456 19 sel 32;
#X obj 585 412 hsl 162 19 0 50 0 0 empty empty empty -2 -10 0 12 #fcfcfc #000000 #000000 0 1;
#X floatatom 585 508 5 0 0 0 - - - 0;
#X obj 201 562 env~;
#X obj 201 586 - 100;
#X obj 201 610 vu 19 200 empty empty -1 -10 0 12 #404040 #000000 1 0;
#N canvas 237 196 748 466 switch 0;
#X obj 95 294 inlet~;
#X obj 630 38 inlet;
#X obj 79 375 outlet~;
#X obj 220 302 inlet~;
#X obj 81 221 vline~;
#X msg 81 184 1 10;
#X msg 199 186 1 10;
#X msg 127 185 0 10;
#X obj 199 217 vline~;
#X msg 244 188 0 10;
#X obj 81 335 *~;
#X obj 201 337 *~;
#X obj 84 97 sel 0;
#X msg 334 193 1 10;
#X obj 311 226 vline~;
#X msg 379 195 0 10;
#X obj 313 346 *~;
#X obj 331 103 sel 2;
#X obj 332 297 inlet~;
#X obj 180 98 sel 1;
#X msg 444 202 1 10;
#X obj 421 235 vline~;
#X msg 489 204 0 10;
#X obj 423 355 *~;
#X obj 442 306 inlet~;
#X obj 441 112 sel 3;
#X connect 0 0 10 1;
#X connect 1 0 12 0;
#X connect 1 0 17 0;
#X connect 1 0 19 0;
#X connect 1 0 25 0;
#X connect 3 0 11 1;
#X connect 4 0 10 0;
#X connect 5 0 4 0;
#X connect 6 0 8 0;
#X connect 7 0 4 0;
#X connect 8 0 11 0;
#X connect 9 0 8 0;
#X connect 10 0 2 0;
#X connect 11 0 2 0;
#X connect 12 0 5 0;
#X connect 12 1 7 0;
#X connect 13 0 14 0;
#X connect 14 0 16 0;
#X connect 15 0 14 0;
#X connect 16 0 2 0;
#X connect 17 0 13 0;
#X connect 17 1 15 0;
#X connect 18 0 16 1;
#X connect 19 0 6 0;
#X connect 19 1 9 0;
#X connect 20 0 21 0;
#X connect 21 0 23 0;
#X connect 22 0 21 0;
#X connect 23 0 2 0;
#X connect 24 0 23 1;
#X connect 25 0 20 0;
#X connect 25 1 22 0;
#X restore -89 212 pd switch;
#X obj -9 162 hradio 19 1 0 4 empty empty empty 0 -10 0 12 #fcfcfc #000000 #000000 0;
#X obj -71 -17 phasor~ 1;
#X floatatom -71 -44 5 0 0 0 - - - 0;
#X obj -75 350 bng 15 250 50 0 empty empty load 18 8 0 12 #fcfcfc #000000 #000000;
#X obj -75 373 openpanel;
#X obj -75 427 soundfiler;
#X obj -75 458 table sample-12;
#X obj -36 128 tabplay~ sample-12;
#X obj -37 93 bng 19 250 50 0 empty empty empty 0 -10 0 12 #fcfcfc #000000 #000000;
#X obj 86 159 spigot;
#X obj 123 112 tgl 19 0 empty empty empty 0 -10 0 12 #fcfcfc #000000 #000000 0 1;
#X text -9 188 inputs:;
#X obj -89 259 s~ signal;
#X text -6 208 1 noise;
#X text -5 225 2 phasor (ping);
#X text -6 243 3 mic;
#X text -8 261 4 soundfile;
#X obj 152 144 bng 19 250 50 0 empty empty empty 0 -10 0 12 #fcfcfc #000000 #000000;
#X obj 582 450 i;
#X obj 585 531 s number;
#X obj 357 625 s at;
#X obj 355 412 vsl 19 162 0 5000 0 0 empty empty empty 0 -9 0 12 #fcfcfc #000000 #000000 0 1;
#X floatatom 355 599 5 0 0 0 - - - 0;
#X obj 409 416 vsl 19 162 0 5000 0 0 empty empty empty 0 -9 0 12 #fcfcfc #000000 #000000 0 1;
#X floatatom 409 596 5 0 0 0 - - - 0;
#X obj 411 622 s rel;
#N canvas 156 163 1027 534 partials 1;
#X obj 114 166 partial 1;
#X obj 196 166 partial 2;
#X obj 271 168 partial 3;
#X obj 363 169 partial 4;
#X obj 439 169 partial 5;
#X obj 519 171 partial 6;
#X obj 598 172 partial 7;
#X obj 676 172 partial 8;
#X obj 750 172 partial 9;
#X obj 827 171 partial 10;
#X obj 115 200 partial 11;
#X obj 197 200 partial 12;
#X obj 272 202 partial 13;
#X obj 364 203 partial 14;
#X obj 440 203 partial 15;
#X obj 520 205 partial 16;
#X obj 599 206 partial 17;
#X obj 677 206 partial 18;
#X obj 751 206 partial 19;
#X obj 828 205 partial 20;
#X obj 116 239 partial 21;
#X obj 198 239 partial 22;
#X obj 273 241 partial 23;
#X obj 365 242 partial 24;
#X obj 441 242 partial 25;
#X obj 521 244 partial 26;
#X obj 600 245 partial 27;
#X obj 678 245 partial 28;
#X obj 752 245 partial 29;
#X obj 830 278 partial 40;
#X obj 829 244 partial 30;
#X obj 117 273 partial 31;
#X obj 199 273 partial 32;
#X obj 274 275 partial 33;
#X obj 366 276 partial 34;
#X obj 442 276 partial 35;
#X obj 522 278 partial 36;
#X obj 601 279 partial 37;
#X obj 679 279 partial 38;
#X obj 753 279 partial 39;
#X obj 91 80 route 0 1 2 3 4 5 6 7 8 9 10 11 12 13 14 15 16 17 18 19 20 21 22 23 24 25 26 27 28 29 30 31 32 33 34 35 36 37 38 39 40 41 42 43 44 45 46 47 48 49 50, f 96;
#X obj 117 318 partial 41;
#X obj 202 316 partial 42;
#X obj 277 318 partial 43;
#X obj 369 319 partial 44;
#X obj 445 319 partial 45;
#X obj 525 321 partial 46;
#X obj 604 322 partial 47;
#X obj 682 322 partial 48;
#X obj 756 322 partial 49;
#X obj 833 321 partial 50;
#X obj 86 34 inlet;
#X connect 40 0 0 0;
#X connect 40 1 1 0;
#X connect 40 2 2 0;
#X connect 40 3 3 0;
#X connect 40 4 4 0;
#X connect 40 5 5 0;
#X connect 40 6 6 0;
#X connect 40 7 7 0;
#X connect 40 8 8 0;
#X connect 40 9 9 0;
#X connect 40 10 10 0;
#X connect 40 11 11 0;
#X connect 40 12 12 0;
#X connect 40 13 13 0;
#X connect 40 14 14 0;
#X connect 40 15 15 0;
#X connect 40 16 16 0;
#X connect 40 17 17 0;
#X connect 40 18 18 0;
#X connect 40 19 19 0;
#X connect 40 20 20 0;
#X connect 40 21 21 0;
#X connect 40 22 22 0;
#X connect 40 23 23 0;
#X connect 40 24 24 0;
#X connect 40 25 25 0;
#X connect 40 26 26 0;
#X connect 40 27 27 0;
#X connect 40 28 28 0;
#X connect 40 29 30 0;
#X connect 40 30 31 0;
#X connect 40 31 32 0;
#X connect 40 32 33 0;
#X connect 40 33 34 0;
#X connect 40 34 35 0;
#X connect 40 35 36 0;
#X connect 40 36 37 0;
#X connect 40 37 38 0;
#X connect 40 38 39 0;
#X connect 40 39 29 0;
#X connect 40 40 41 0;
#X connect 40 41 42 0;
#X connect 40 42 43 0;
#X connect 40 43 44 0;
#X connect 40 44 45 0;
#X connect 40 45 46 0;
#X connect 40 46 47 0;
#X connect 40 47 48 0;
#X connect 40 48 49 0;
#X connect 40 49 50 0;
#X connect 51 0 40 0;
#X restore 102 303 pd partials;
#X obj 85 504 catch~ signal-l;
#X obj 262 564 env~;
#X obj 262 588 - 100;
#X obj 262 612 vu 19 200 empty empty -1 -10 0 12 #404040 #000000 1 0;
#X obj 239 506 catch~ signal-r;
#X msg -75 399 read -resize \$1 sample-12;
#X msg -57 558 \; sample-12 normalize;
#X obj 495 249 delay 5;
#X obj 822 510 s chaosfreq;
#X obj 823 303 vsl 19 162 0.01 100 1 0 empty empty empty 0 -9 0 12 #fcfcfc #000000 #000000 0 1;
#X floatatom 823 473 5 0 0 0 - - - 0;
#X obj 912 509 s chaosamount;
#X obj 915 294 vsl 19 162 0 100 0 0 empty empty empty 0 -9 0 12 #fcfcfc #000000 #000000 0 1;
#X floatatom 914 470 5 0 0 0 - - - 0;
#X obj 454 111 metro 20;
#X obj 456 77 tgl 19 0 empty empty empty 0 -10 0 12 #fcfcfc #000000 #000000 0 1;
#X obj 562 -67 vsl 19 162 10 1000 0 0 empty empty empty 0 -9 0 12 #fcfcfc #000000 #000000 0 1;
#X floatatom 562 103 5 0 0 0 - - - 0;
#X obj 377 26 key;
#X obj 377 50 sel 102;
#X obj 377 74 t b b;
#X msg 409 96 0;
#X obj 105 251 sigmund~ -npts 4096 -hop 256 -npeak 50 tracks;
#X obj 367 327 print;
#X obj -43 34 tabplay~ buffer;
#X obj 36 -6 bng 19 250 50 0 empty empty empty 0 -10 0 12 #fcfcfc #000000 #000000;
#X obj -88 -95 r~ masterin;
#X connect 1 0 42 0;
#X connect 2 0 1 1;
#X connect 3 0 1 1;
#X connect 4 0 3 0;
#X connect 4 0 50 0;
#X connect 7 0 6 0;
#X connect 8 0 9 0;
#X connect 9 0 58 0;
#X connect 10 0 34 0;
#X connect 11 0 35 0;
#X connect 12 0 13 0;
#X connect 13 0 14 0;
#X connect 15 0 28 0;
#X connect 15 0 65 0;
#X connect 16 0 15 4;
#X connect 17 0 15 1;
#X connect 18 0 17 0;
#X connect 19 0 20 0;
#X connect 20 0 48 0;
#X connect 23 0 15 3;
#X connect 23 1 25 0;
#X connect 23 1 33 0;
#X connect 24 0 23 0;
#X connect 25 0 24 0;
#X connect 26 0 25 1;
#X connect 34 0 11 0;
#X connect 37 0 38 0;
#X connect 38 0 36 0;
#X connect 39 0 40 0;
#X connect 40 0 41 0;
#X connect 43 0 0 0;
#X connect 43 0 12 0;
#X connect 44 0 45 0;
#X connect 45 0 46 0;
#X connect 47 0 44 0;
#X connect 47 0 0 1;
#X connect 48 0 21 0;
#X connect 50 0 2 0;
#X connect 50 0 5 0;
#X connect 52 0 53 0;
#X connect 53 0 51 0;
#X connect 55 0 56 0;
#X connect 56 0 54 0;
#X connect 57 0 4 0;
#X connect 58 0 57 0;
#X connect 59 0 60 0;
#X connect 60 0 57 1;
#X connect 61 0 62 0;
#X connect 62 0 63 0;
#X connect 63 0 4 0;
#X connect 63 1 64 0;
#X connect 64 0 58 0;
#X connect 65 0 1 0;
#X connect 67 0 15 2;
#X connect 68 0 67 0;
#X connect 69 0 15 0;
