#N canvas 47 38 1307 847 12;
#X obj 575 504 delwrite~ \$0-delay 5000;
#X obj 855 241 vsl 19 162 0 1 0 0 empty empty empty 0 -9 0 12 #fcfcfc #000000 #000000 0 1;
#X obj 854 412 pack f 10;
#X obj 854 436 line~;
#X obj 857 470 *~;
#X obj 656 409 delread4~ \$0-delay;
#X obj 658 254 osc~ 1;
#X floatatom 660 226 5 0 0 0 - - - 0;
#X obj 658 282 expr~ $v1 * 0.5 + 0.5;
#X obj 657 362 expr~ $v1 * $v2 + $v3;
#X floatatom 725 308 5 0 0 0 - - - 0;
#X obj 725 330 sig~;
#X floatatom 798 306 5 0 0 0 - - - 0;
#X obj 798 328 sig~;
#X obj 574 196 r~ masterin;
#X obj 844 525 output~;
#X connect 1 0 2 0;
#X connect 2 0 3 0;
#X connect 3 0 4 1;
#X connect 4 0 0 0;
#X connect 4 0 15 0;
#X connect 5 0 4 0;
#X connect 6 0 8 0;
#X connect 7 0 6 0;
#X connect 8 0 9 0;
#X connect 9 0 5 0;
#X connect 10 0 11 0;
#X connect 11 0 9 1;
#X connect 12 0 13 0;
#X connect 13 0 9 2;
#X connect 14 0 0 0;
