#N canvas -55 38 1307 847 12;
#X obj 776 568 output~;
#X obj 470 276 vsl 19 162 0 1 0 0 empty empty empty 0 -9 0 12 #fcfcfc #000000 #000000 0 1;
#X obj 470 446 pack f 10;
#X obj 470 470 line~;
#X obj 312 437 delread~ \$0-delay;
#X obj 619 508 delwrite~ \$0-delay 5000;
#X obj 218 446 line~;
#X obj 233 362 t b;
#X obj 311 492 *~;
#X obj 418 502 *~;
#X obj 214 254 t f b;
#X floatatom 214 226 5 0 0 0 - - - 0;
#X msg 218 332 0 10;
#X obj 233 385 del 30;
#X msg 252 411 1 10;
#X obj 311 404 pipe f 30;
#X obj 855 241 vsl 19 162 0 1 0 0 empty empty empty 0 -9 0 12 #fcfcfc #000000 #000000 0 1;
#X obj 854 412 pack f 10;
#X obj 854 436 line~;
#X obj 857 470 *~;
#X obj 656 409 delread4~ \$0-delay;
#X floatatom 521 506 5 0 0 0 - - - 0;
#X obj 521 557 line~;
#X obj 521 530 pack f 100;
#X obj 658 254 osc~ 1;
#X floatatom 659 228 5 0 0 0 - - - 0;
#X obj 658 282 expr~ $v1 * 0.5 + 0.5;
#X obj 657 362 expr~ $v1 * $v2 + $v3;
#X floatatom 725 308 5 0 0 0 - - - 0;
#X obj 725 330 sig~;
#X floatatom 798 306 5 0 0 0 - - - 0;
#X obj 798 328 sig~;
#X obj 618 460 adc~;
#X connect 1 0 2 0;
#X connect 2 0 3 0;
#X connect 3 0 9 1;
#X connect 4 0 8 0;
#X connect 6 0 8 1;
#X connect 7 0 13 0;
#X connect 10 0 15 0;
#X connect 10 1 12 0;
#X connect 11 0 10 0;
#X connect 12 0 7 0;
#X connect 12 0 6 0;
#X connect 13 0 14 0;
#X connect 14 0 6 0;
#X connect 15 0 4 0;
#X connect 16 0 17 0;
#X connect 17 0 18 0;
#X connect 18 0 19 1;
#X connect 19 0 5 0;
#X connect 20 0 19 0;
#X connect 20 0 0 0;
#X connect 21 0 23 0;
#X connect 23 0 22 0;
#X connect 24 0 26 0;
#X connect 25 0 24 0;
#X connect 26 0 27 0;
#X connect 27 0 20 0;
#X connect 28 0 29 0;
#X connect 29 0 27 1;
#X connect 30 0 31 0;
#X connect 31 0 27 2;
#X connect 32 0 5 0;
