#N canvas 312 200 898 550 12;
#X obj 227 73 adc~;
#X obj 228 103 delwrite~ \$0-del 1000;
#X obj 225 365 delread~ \$0-del 500;
#X obj 226 406 output~;
#X floatatom 221 286 5 0 0 0 - - - 0;
#X msg 223 323 \$1;
#X obj 222 228 metro 50;
#X obj 221 256 random 1000;
#X obj 226 190 tgl 19 0 empty empty empty 0 -10 0 12 #fcfcfc #000000 #000000 0 1;
#X text 76 259 random delay times;
#X connect 0 0 1 0;
#X connect 2 0 3 0;
#X connect 4 0 5 0;
#X connect 5 0 2 0;
#X connect 6 0 7 0;
#X connect 7 0 4 0;
#X connect 8 0 6 0;
