#N canvas 150 188 736 588 12;
#X obj 184 67 adc~;
#X obj 185 173 sigmund~ -hop 1024 pitch;
#X floatatom 232 299 5 0 0 0 - - - 0;
#X obj 224 224 print;
#X obj 187 267 moses 0;
#X obj 231 379 osc~;
#X obj 230 415 output~;
#X obj 230 337 mtof;
#X floatatom 444 307 5 0 0 0 - - - 0;
#X obj 399 275 moses 0;
#X obj 443 387 osc~;
#X obj 442 423 output~;
#X obj 442 345 mtof;
#X obj 398 161 sigmund~ -hop 1024;
#X connect 0 0 1 0;
#X connect 0 0 13 0;
#X connect 1 0 3 0;
#X connect 1 0 4 0;
#X connect 2 0 7 0;
#X connect 4 1 2 0;
#X connect 5 0 6 0;
#X connect 5 0 6 1;
#X connect 7 0 5 0;
#X connect 8 0 12 0;
#X connect 9 1 8 0;
#X connect 10 0 11 0;
#X connect 10 0 11 1;
#X connect 12 0 10 0;
#X connect 13 0 9 0;
