#N canvas 79 138 1364 775 12;
#X obj 101 53 adc~;
#X floatatom 264 332 5 0 0 0 - - - 0;
#X floatatom 295 310 5 0 0 0 - - - 0;
#X floatatom 327 287 5 0 0 0 - - - 0;
#X floatatom 359 265 5 0 0 0 - - - 0;
#X floatatom 418 332 5 0 0 0 - - - 0;
#X floatatom 449 310 5 0 0 0 - - - 0;
#X floatatom 481 287 5 0 0 0 - - - 0;
#X floatatom 513 265 5 0 0 0 - - - 0;
#X text 459 331 frequency (Hz.);
#X text 490 309 peak amplitude (linear);
#X text 521 287 cosine component;
#X text 554 264 sine component;
#X text 255 359 loudest partial;
#X text 419 359 quietest partial;
#X obj 418 239 unpack f f f f;
#X obj 264 192 unpack f f f f;
#X obj 266 120 sigmund~ -hop 1024 -npeak 5 peaks;
#X obj 265 153 route 0 1 2 3 4;
#X floatatom 78 209 5 0 0 0 - - - 0;
#X floatatom 145 212 5 0 0 0 - - - 0;
#X floatatom 177 189 5 0 0 0 - - - 0;
#X floatatom 209 167 5 0 0 0 - - - 0;
#X obj 112 145 unpack f f f f;
#X obj 92 306 osc~;
#X obj 95 283 mtof;
#X obj 36 367 output~;
#X obj 77 229 moses 0;
#X obj 43 87 env~;
#X floatatom 43 110 5 0 0 0 - - - 0;
#X obj 129 85 sigmund~ -stabletime 100 -minpower 80 notes;
#X obj 53 333 *~;
#X obj 95 261 - 22;
#X connect 0 0 28 0;
#X connect 0 0 30 0;
#X connect 0 0 31 0;
#X connect 15 0 5 0;
#X connect 15 1 6 0;
#X connect 15 2 7 0;
#X connect 15 3 8 0;
#X connect 16 0 1 0;
#X connect 16 1 2 0;
#X connect 16 2 3 0;
#X connect 16 3 4 0;
#X connect 17 0 18 0;
#X connect 18 0 16 0;
#X connect 18 4 15 0;
#X connect 19 0 27 0;
#X connect 23 0 19 0;
#X connect 23 1 20 0;
#X connect 23 2 21 0;
#X connect 23 3 22 0;
#X connect 24 0 31 1;
#X connect 25 0 24 0;
#X connect 27 1 32 0;
#X connect 28 0 29 0;
#X connect 30 0 23 0;
#X connect 31 0 26 0;
#X connect 32 0 25 0;
