#N canvas 90 128 1135 826 12;
#X obj 310 57 inlet;
#X floatatom 295 159 5 0 0 0 - - - 0;
#X floatatom 367 211 5 0 0 0 - - - 0;
#X floatatom 388 159 5 0 0 0 - - - 0;
#X floatatom 415 130 5 0 0 0 - - - 0;
#X obj 320 102 unpack f f f f;
#X obj 349 410 line~;
#X obj 424 210 r dur;
#X obj 290 253 pack f f;
#X msg 274 322 \$1 \$2;
#X obj 366 251 pack f f;
#X msg 351 317 \$1 \$2;
#X obj 297 531 *~;
#X obj 277 364 line~;
#X obj 636 171 change;
#X obj 636 113 r number;
#X obj 636 143 >= \$1 - 1;
#X obj 625 207 sel 0 1;
#X obj 556 408 vline~;
#X obj 557 435 *~;
#X obj 414 484 *~;
#X obj 289 490 osc~;
#X obj 559 314 pack 0 f;
#X msg 556 357 \$1 \$2;
#X msg 610 357 \$1 \$2;
#X obj 632 316 pack 1 f;
#X obj 565 253 r rel;
#X obj 693 277 r at;
#X obj 370 605 throw~ signal-l;
#X obj 504 604 throw~ signal-r;
#X obj 726 474 random 100;
#X obj 726 505 expr (100 - $f1)*0.01 \; $f1 * 0.01;
#X obj 387 558 *~;
#X obj 501 566 *~;
#X obj 726 543 pack f 10;
#X obj 726 567 line~;
#X obj 875 548 pack f 10;
#X obj 875 572 line~;
#X obj 276 443 +~;
#X obj 148 424 *~;
#X floatatom 171 378 5 0 0 0 - - - 0;
#N canvas 184 241 685 612 chaos 0;
#X obj 103 243 metro 50;
#X obj 103 270 random 2000;
#X floatatom 197 77 5 0 0 0 - - - 0;
#X obj 193 245 expr 1/$f1 * 1000;
#X obj 103 294 expr ($f1 - 1000) / 1000;
#X floatatom 103 318 5 0 0 0 - - - 0;
#X obj 81 373 pack f f;
#X msg 80 408 \$1 \$2;
#X obj 100 49 loadbang;
#X obj 100 73 1;
#X obj 192 40 r chaosfreq;
#X obj 81 447 vline~;
#X obj 80 476 outlet~;
#X floatatom 288 66 5 0 0 0 - - - 0;
#X obj 289 41 r chaosfreq;
#X obj 288 89 sel 0;
#X msg 286 118 0;
#X msg 319 118 1;
#X connect 0 0 1 0;
#X connect 1 0 4 0;
#X connect 2 0 3 0;
#X connect 3 0 0 1;
#X connect 3 0 6 1;
#X connect 4 0 5 0;
#X connect 5 0 6 0;
#X connect 6 0 7 0;
#X connect 7 0 11 0;
#X connect 8 0 9 0;
#X connect 9 0 0 0;
#X connect 10 0 2 0;
#X connect 11 0 12 0;
#X connect 13 0 15 0;
#X connect 14 0 13 0;
#X connect 15 0 16 0;
#X connect 15 1 17 0;
#X connect 16 0 0 0;
#X connect 17 0 0 0;
#X restore 103 349 pd chaos;
#X obj 170 351 r chaosamount;
#X obj 248 190 s \$1-partial;
#X connect 0 0 5 0;
#X connect 1 0 8 0;
#X connect 1 0 43 0;
#X connect 2 0 10 0;
#X connect 5 0 1 0;
#X connect 5 1 2 0;
#X connect 5 2 3 0;
#X connect 5 3 4 0;
#X connect 6 0 12 1;
#X connect 7 0 8 1;
#X connect 7 0 10 1;
#X connect 8 0 9 0;
#X connect 9 0 13 0;
#X connect 10 0 11 0;
#X connect 11 0 6 0;
#X connect 12 0 20 1;
#X connect 13 0 38 1;
#X connect 14 0 17 0;
#X connect 15 0 16 0;
#X connect 16 0 14 0;
#X connect 17 0 22 0;
#X connect 17 1 25 0;
#X connect 17 1 30 0;
#X connect 18 0 19 0;
#X connect 18 0 19 1;
#X connect 19 0 20 0;
#X connect 20 0 32 0;
#X connect 20 0 33 0;
#X connect 21 0 12 0;
#X connect 22 0 23 0;
#X connect 23 0 18 0;
#X connect 24 0 18 0;
#X connect 25 0 24 0;
#X connect 26 0 22 1;
#X connect 27 0 25 1;
#X connect 30 0 31 0;
#X connect 31 0 34 0;
#X connect 31 1 36 0;
#X connect 32 0 28 0;
#X connect 33 0 29 0;
#X connect 34 0 35 0;
#X connect 35 0 32 1;
#X connect 36 0 37 0;
#X connect 37 0 33 1;
#X connect 38 0 21 0;
#X connect 39 0 38 0;
#X connect 40 0 39 1;
#X connect 41 0 39 0;
#X connect 42 0 40 0;
